<?xml version="1.0" encoding="UTF-8" standalone="no"?>
<svg
   xmlns:dc="http://purl.org/dc/elements/1.1/"
   xmlns:cc="http://creativecommons.org/ns#"
   xmlns:rdf="http://www.w3.org/1999/02/22-rdf-syntax-ns#"
   xmlns:svg="http://www.w3.org/2000/svg"
   xmlns="http://www.w3.org/2000/svg"
   xmlns:sodipodi="http://sodipodi.sourceforge.net/DTD/sodipodi-0.dtd"
   xmlns:inkscape="http://www.inkscape.org/namespaces/inkscape"
   width="48"
   height="48"
   viewBox="0 0 48 48"
   id="svg2987"
   version="1.1"
   inkscape:version="0.48.4 r9939"
   sodipodi:docname="ic_discover_ongoing.svg">
  <metadata
     id="metadata2995">
    <rdf:RDF>
      <cc:Work
         rdf:about="">
        <dc:format>image/svg+xml</dc:format>
        <dc:type
           rdf:resource="http://purl.org/dc/dcmitype/StillImage" />
        <dc:title />
      </cc:Work>
    </rdf:RDF>
  </metadata>
  <defs
     id="defs2993" />
  <sodipodi:namedview
     pagecolor="#ffffff"
     bordercolor="#666666"
     borderopacity="1"
     objecttolerance="10"
     gridtolerance="10"
     guidetolerance="10"
     inkscape:pageopacity="0"
     inkscape:pageshadow="2"
     inkscape:window-width="1240"
     inkscape:window-height="841"
     id="namedview2991"
     showgrid="false"
     inkscape:zoom="4"
     inkscape:cx="14.793162"
     inkscape:cy="24.484026"
     inkscape:window-x="145"
     inkscape:window-y="30"
     inkscape:window-maximized="0"
     inkscape:current-layer="svg2987" />
  <path
     d="M 24 6 C 13.91 6 6.29 9.69875 0 14.46875 L 4.25 19.71875 C 9.6410944 15.313215 16.50843 12.65625 24 12.65625 C 31.49157 12.65625 38.358906 15.313215 43.75 19.71875 L 48 14.5 C 41.71 9.74 34.09 6 24 6 z M 24 16.65625 C 17.453758 16.65625 11.446307 18.951903 6.75 22.78125 L 10.40625 27.28125 C 14.117559 24.248523 18.850478 22.40625 24 22.40625 C 29.149522 22.40625 33.88244 24.248523 37.59375 27.28125 L 41.25 22.78125 C 36.553693 18.951903 30.546242 16.65625 24 16.65625 z M 24 26.40625 C 19.787714 26.40625 15.925354 27.878672 12.90625 30.34375 L 16.53125 34.84375 L 16.5625 34.84375 C 18.592066 33.16823 21.177852 32.15625 24 32.15625 C 26.831297 32.15625 29.436288 33.158471 31.46875 34.84375 L 35.09375 30.375 C 32.079188 27.902797 28.219039 26.40625 24 26.40625 z M 24 36.1875 C 22.114472 36.1875 20.399883 36.835808 19.0625 37.9375 L 24 44 L 28.9375 37.90625 C 27.598198 36.820716 25.870161 36.1875 24 36.1875 z "
     id="path2996" />
  <g
     id="g3764"
     transform="translate(0,34.728814)">
    <g
       id="g3804"
       transform="translate(0,19.932204)" />
  </g>
  <path
     inkscape:connector-curvature="0"
     d="m -33.5,2.3750001 c -10.09,0 -17.71,3.6999997 -24,8.4699999 l 24,29.53 24.0000003,-29.5 C -15.79,6.1149998 -23.41,2.3750001 -33.5,2.3750001 z"
     id="path2996-4"
     sodipodi:nodetypes="scccs" />
</svg>
