<?xml version="1.0" encoding="UTF-8" standalone="no"?>
<svg
   xmlns:dc="http://purl.org/dc/elements/1.1/"
   xmlns:cc="http://creativecommons.org/ns#"
   xmlns:rdf="http://www.w3.org/1999/02/22-rdf-syntax-ns#"
   xmlns:svg="http://www.w3.org/2000/svg"
   xmlns="http://www.w3.org/2000/svg"
   xmlns:sodipodi="http://sodipodi.sourceforge.net/DTD/sodipodi-0.dtd"
   xmlns:inkscape="http://www.inkscape.org/namespaces/inkscape"
   width="48"
   height="48"
   viewBox="0 0 48 48"
   id="svg2"
   version="1.1"
   inkscape:version="0.48.4 r9939"
   sodipodi:docname="ic_volume_on.svg">
  <metadata
     id="metadata10">
    <rdf:RDF>
      <cc:Work
         rdf:about="">
        <dc:format>image/svg+xml</dc:format>
        <dc:type
           rdf:resource="http://purl.org/dc/dcmitype/StillImage" />
      </cc:Work>
    </rdf:RDF>
  </metadata>
  <defs
     id="defs8" />
  <sodipodi:namedview
     pagecolor="#ffffff"
     bordercolor="#666666"
     borderopacity="1"
     objecttolerance="10"
     gridtolerance="10"
     guidetolerance="10"
     inkscape:pageopacity="0"
     inkscape:pageshadow="2"
     inkscape:window-width="1338"
     inkscape:window-height="585"
     id="namedview6"
     showgrid="false"
     inkscape:zoom="4.9166667"
     inkscape:cx="24"
     inkscape:cy="24"
     inkscape:window-x="0"
     inkscape:window-y="30"
     inkscape:window-maximized="0"
     inkscape:current-layer="svg2" />
  <path
     d="M 36,24 C 36,19.293333 33.28,15.226667 29.333333,13.266667 V 19.16 L 35.88,25.706667 C 35.96,25.146667 36,24.573333 36,24 z m 6.666667,0 c 0,2.506667 -0.546667,4.866667 -1.44,7.04 l 4.04,4.04 C 47,31.76 48,28 48,24 48,12.586667 40.013333,3.04 29.333333,0.6133333 V 6.12 C 37.04,8.4133333 42.666667,15.546667 42.666667,24 z M 3.4,0 0,3.4 12.6,16 H 0 V 32 H 10.666667 L 24,45.333333 V 27.4 l 11.346667,11.346667 c -1.786667,1.373333 -3.8,2.48 -6.013334,3.146666 V 47.4 C 33,46.56 36.346667,44.88 39.16,42.573333 L 44.6,48 48,44.6 24,20.6 3.4,0 z M 24,2.6666667 18.426667,8.24 24,13.813333 V 2.6666667 z"
     id="path4"
     style="fill:#808080;fill-opacity:0.35"
     inkscape:connector-curvature="0" />
</svg>
